# AST/ASF file generated using VICON BodyLanguage
# -----------------------------------------------
:version 1.10
:name VICON
:units
  mass 1.0
  length 0.45
  angle deg
:documentation
   .ast/.asf automatically generated from VICON data using
   VICON BodyBuilder and BodyLanguage model FoxedUp or BRILLIANT.MOD
:root
   order TX TY TZ RX RY RZ
   axis XYZ
   position 0 0 0  
   orientation 0 0 0 
:bonedata
  begin
     id 1 
     name lhipjoint
     direction 0.523584 -0.783993 0.333487 
     length 2.44404 
     axis 0 0 0  XYZ
  end
  begin
     id 2 
     name lfemur
     direction 0.34202 -0.939693 0  
     length 7.29523  
     axis 0 0 20  XYZ
    dof rx ry rz
    limits (-160.0 20.0)
           (-70.0 70.0)
           (-60.0 70.0)
  end
  begin
     id 3 
     name ltibia
     direction 0.34215 -0.939645 0   
     length 7.81194   
     axis 0 0 20   XYZ
    dof rx
    limits (-10.0 170.0)
  end
  begin
     id 4 
     name lfoot
     direction 0.0941847 -0.25877 0.961336   
     length 2.41437   
     axis -90 7.62852e-016 20   XYZ
    dof rx rz
    limits (-45.0 90.0)
           (-70.0 20.0)
  end
  begin
     id 5 
     name ltoes
     direction 1.53526e-011 -4.21768e-011 1   
     length 1.2048   
     axis -90 7.62852e-016 20   XYZ
    dof rx
    limits (-90.0 20.0)
  end
  begin
     id 6 
     name rhipjoint
     direction -0.46599 -0.814191 0.346332   
     length 2.35339  
     axis 0 0 0  XYZ 
  end
  begin
     id 7 
     name rfemur
     direction -0.34202 -0.939693 0   
     length 7.34966   
     axis 0 0 -20   XYZ
    dof rx ry rz
    limits (-160.0 20.0)
           (-70.0 70.0)
           (-70.0 60.0)
  end
  begin
     id 8 
     name rtibia
     direction -0.34202 -0.939693 0   
     length 7.89934   
     axis 0 0 -20   XYZ
    dof rx
    limits (-10.0 170.0)
 end
 begin
     id 9 
     name rfoot
     direction -0.0975468 -0.268008 0.958466   
     length 2.27725  
     axis -90 -7.62852e-016 -20   XYZ
    dof rx rz
    limits (-45.0 90.0)
           (-20.0 70.0)
  end
  begin
     id 10 
     name rtoes
     direction -1.53563e-011 -4.22022e-011 1   
     length 1.13683   
     axis -90 -7.62852e-016 -20   XYZ
    dof rx
    limits (-90.0 20.0)
  end
  begin
     id 11 
     name lowerback
     direction -0.00456414 0.999242 -0.0386661   
     length 2.16968   
     axis 0 0 0   XYZ
    dof rx ry rz
    limits (-20.0 45.0)
           (-30.0 30.0)
           (-30.0 30.0)
  end
  begin
     id 12 
     name upperback
     direction 0.0297078 0.998988 0.0337799   
     length 2.15674   
     axis 0 0 0   XYZ
    dof rx ry rz
    limits (-20.0 45.0)
           (-30.0 30.0)
           (-30.0 30.0)
  end
  begin
     id 13 
     name thorax
     direction 0.0309305 0.998202 0.0513506   
     length 2.16319   
     axis 0 0 0   XYZ
    dof rx ry rz
    limits (-20.0 45.0)
           (-30.0 30.0)
           (-30.0 30.0)
  end
  begin
     id 14 
     name lowerneck
     direction -0.103039 0.983474 0.148872   
     length 1.64318   
     axis 0 0 0   XYZ
    dof rx ry rz
    limits (-20.0 45.0)
           (-30.0 30.0)
           (-30.0 30.0)
  end
  begin
     id 15 
     name upperneck
     direction 0.128124 0.971079 -0.201469   
     length 1.68242   
     axis 0 0 0   XYZ
    dof rx ry rz
    limits (-20.0 45.0)
           (-30.0 30.0)
           (-30.0 30.0)
  end
  begin
     id 16
     name head
     direction 0.0496365 0.994919 -0.0875941  
     length 1.70108  
     axis 0 0 0   XYZ
    dof rx ry rz
    limits (-20.0 45.0)
           (-30.0 30.0)
           (-30.0 30.0)
  end
  begin
     id 17 
     name lclavicle
     direction 0.887148 0.430222 -0.166967  
     length 3.25763  
     axis 0 0 0   XYZ
    dof ry rz
    limits (-20.0 10.0)
           (0.0 20.0)
  end
  begin
     id 18 
     name lhumerus
     direction 1 -4.48962e-011 1.92156e-027   
     length 5.10755   
     axis 180 -30 -90   XYZ
    dof rx ry rz
    limits (-60.0 90.0)
           (-90.0 90.0)
           (-90.0 90.0)
  end
  begin
     id 19
     name lradius
     direction 1 -4.48958e-011 7.10963e-027   
     length 3.36253   
     axis 180 -30 -90   XYZ
    dof rx
    limits (-10.0 170.0)
  end
  begin
     id 20
     name lwrist
     direction 1 -4.48946e-011 1.82396e-026   
     length 1.68127   
     axis -1.15222e-014 90 90   XYZ
    dof ry
    limits (-180.0 0.0)
 end
  begin
     id 21 
     name lhand
     direction 1 -4.48919e-011 3.64759e-026   
     length 0.619088   
     axis -2.32787e-014 90 90   XYZ
    dof rx rz
    limits (-90.0 90.0)
           (-45.0 45.0)
  end
  begin
     id 22 
     name lfingers
     direction 1 -4.49012e-011 7.29744e-026   
     length 0.499125   
     axis -4.6558e-014 90 90   XYZ
    dof rx
    limits (0.0 90.0)
  end
  begin
     id 23
     name lthumb
     direction 0.707107 -6.35028e-011 0.707107   
     length 0.716646   
     axis -90 45 3.78391e-014   XYZ
    dof rx rz
    limits (-45.0 45.0)
           (-45.0 45.0)
  end
  begin
     id 24 
     name rclavicle
     direction -0.82886 0.533198 -0.169384   
     length 3.20647  
     axis 0 0 0   XYZ 
    dof ry rz
    limits (-10.0 20.0)
           (-20.0 0.0)
  end
  begin
     id 25 
     name rhumerus
     direction -1 -4.48973e-011 3.06863e-027  
     length 5.27387   
     axis 180 30 90   XYZ
    dof rx ry rz
    limits (-90.0 60.0)
           (-90.0 90.0)
           (-90.0 90.0)
  end
  begin
     id 26 
     name rradius
     direction -1 -4.48988e-011 9.4797e-027   
     length 3.40144   
     axis 180 30 90   XYZ
    dof rx
    limits (-10.0 170.0)
  end
  begin
     id 27 
     name rwrist
     direction -1 -4.48897e-011 1.82366e-026   
     length 1.70072   
     axis -1.15222e-014 -90 -90   XYZ
    dof ry
    limits (-180.0 0.0)
  end
  begin
     id 28
     name rhand
     direction -1 -4.48965e-011 3.64815e-026   
     length 0.742821   
     axis -2.32787e-014 -90 -90   XYZ
    dof rx rz
    limits (-90.0 90.0)
           (-45.0 45.0)
  end
  begin
     id 29
     name rfingers
     direction -1 -4.49016e-011 7.29754e-026   
     length 0.598881   
     axis -4.6558e-014 -90 -90   XYZ
    dof rx
    limits (0.0 90.0)
  end
  begin
     id 30
     name rthumb
     direction -0.707107 -6.3488e-011 0.707107   
     length 0.859877   
     axis -90 -45 -3.78391e-014   XYZ
    dof rx rz
    limits (-45.0 45.0)
           (-45.0 45.0)
  end
:hierarchy
  begin
    root lhipjoint rhipjoint lowerback
    lhipjoint lfemur
    lfemur ltibia
    ltibia lfoot
    lfoot ltoes
    rhipjoint rfemur
    rfemur rtibia
    rtibia rfoot
    rfoot rtoes
    lowerback upperback
    upperback thorax
    thorax lowerneck lclavicle rclavicle
    lowerneck upperneck
    upperneck head
    lclavicle lhumerus
    lhumerus lradius
    lradius lwrist
    lwrist lhand lthumb
    lhand lfingers
    rclavicle rhumerus
    rhumerus rradius
    rradius rwrist
    rwrist rhand rthumb
    rhand rfingers
  end

#!OML:ASF F:\Work\Patient Classification 1\justin\Session 1\justin.ASF
:FULLY-SPECIFIED
:DEGREES
1448
root 0.881937 18.4325 -4.34283 3.57852 2.55254 -3.16331
lowerback 9.47965 -0.0616518 0.453685
upperback -1.0624 0.199879 3.55752
thorax -6.45914 0.15111 3.45692
lowerneck -17.1849 -5.85405 -15.6315
upperneck 18.005 -6.5601 12.108
head 9.449 -2.90362 5.94429
rclavicle -1.15295e-014 -4.77083e-015
rhumerus 11.7886 27.9877 -62.854
rradius 91.0334
rwrist 18.2427
rhand -4.05507 4.59736
rfingers 7.12502
rthumb 21.7011 -24.2063
lclavicle -1.15295e-014 -4.77083e-015
lhumerus 40.3442 -17.8814 74.786
lradius 51.4467
lwrist -21.845
lhand -7.95933 25.3796
lfingers 7.12502
lthumb 17.948 54.5714
rfemur -6.20867 -0.170215 23.1707
rtibia 18.6387
rfoot -12.5542 -5.813
rtoes -12.4
lfemur -6.3533 2.34092 -16.362
ltibia 18.6735
lfoot -11.5315 -0.147889
ltoes -13.9849
1449
root 0.886069 18.4307 -4.34271 3.54303 2.75108 -3.11411
lowerback 9.54097 -0.0378941 0.556088
upperback -1.11992 0.243898 3.50479
thorax -6.5567 0.16914 3.33806
lowerneck -17.0929 -5.94877 -15.7348
upperneck 18.117 -6.69151 12.1228
head 9.49635 -2.97456 5.95161
rclavicle 9.0944e-015 -2.38542e-015
rhumerus 11.4341 27.8711 -63.2358
rradius 89.7859
rwrist 18.4567
rhand -4.44261 5.35362
rfingers 7.12502
rthumb 21.3289 -23.4926
lclavicle 9.0944e-015 -2.38542e-015
lhumerus 40.6903 -17.9481 74.5147
lradius 52.7195
lwrist -21.8073
lhand -7.54241 25.2792
lfingers 7.12502
lthumb 18.3491 54.4338
rfemur -6.15915 -0.359291 23.0916
rtibia 18.6719
rfoot -12.6401 -5.79557
rtoes -11.8283
lfemur -6.33096 2.29568 -16.4428
ltibia 18.6388
lfoot -11.5453 -0.203347
ltoes -14.3156
1450
root 0.892221 18.4301 -4.33959 3.51168 2.86949 -2.99498
lowerback 9.41051 0.0220858 0.579934
upperback -0.979673 0.315185 3.45274
thorax -6.33691 0.199851 3.25492
lowerneck -17.3547 -6.13105 -15.8433
upperneck 18.163 -6.87735 12.1147
head 9.59439 -3.06146 5.93806
rclavicle 7.15625e-015 7.95139e-015
rhumerus 11.6431 27.6367 -63.3017
rradius 88.1933
rwrist 18.8042
rhand -5.12386 6.44218
rfingers 7.12502
rthumb 20.6744 -22.4767
lclavicle 7.15625e-015 7.95139e-015
lhumerus 41.1804 -17.987 74.2143
lradius 54.0879
lwrist -21.5156
lhand -7.69659 25.3963
lfingers 7.12502
lthumb 18.2008 54.5648
rfemur -6.09159 -0.554462 22.9238
rtibia 18.6648
rfoot -12.6844 -5.75246
rtoes -11.6929
lfemur -6.28638 2.2848 -16.6143
ltibia 18.6437
lfoot -11.6162 -0.242665
ltoes -14.6535
1451
root 0.897615 18.4295 -4.33657 3.47537 3.03215 -2.93385
lowerback 9.80367 0.0832077 0.591857
upperback -1.2135 0.41756 3.4619
thorax -6.81474 0.254675 3.25011
lowerneck -17.3209 -6.26436 -16.0465
upperneck 18.4165 -7.03657 12.1254
head 9.71104 -3.15254 5.95977
rclavicle 3.13086e-015 -1.59028e-015
rhumerus 11.3031 27.7116 -63.4586
rradius 86.7741
rwrist 18.9779
rhand -5.53813 6.75355
rfingers 7.12502
rthumb 20.2763 -22.2081
lclavicle 3.13086e-015 -1.59028e-015
lhumerus 41.0017 -18.1893 74.2543
lradius 55.6104
lwrist -21.42
lhand -7.7825 25.7261
lfingers 7.12502
lthumb 18.1181 54.9023
rfemur -6.01042 -0.712229 22.8344
rtibia 18.6289
rfoot -12.6251 -5.77318
rtoes -11.802
lfemur -6.25017 2.23796 -16.7009
ltibia 18.6661
lfoot -11.6892 -0.321172
ltoes -14.7674
1452
root 0.898222 18.4296 -4.33722 3.4408 3.3537 -2.95579
lowerback 9.6522 0.0869111 0.662448
upperback -1.10042 0.42507 3.49173
thorax -6.60835 0.254338 3.23728
lowerneck -17.3003 -6.35797 -16.1625
upperneck 18.2617 -7.13973 12.1806
head 9.67695 -3.20173 5.97942
rclavicle 1.78906e-015 -2.46493e-014
rhumerus 11.4378 27.4667 -63.4324
rradius 85.6523
rwrist 19.2244
rhand -5.4435 6.75162
rfingers 7.12502
rthumb 20.3672 -22.2003
lclavicle 1.78906e-015 -2.46493e-014
lhumerus 41.3633 -18.2643 74.0921
lradius 57.1203
lwrist -21.4529
lhand -7.67315 26.1056
lfingers 7.12502
lthumb 18.2233 55.2719
rfemur -5.93086 -0.827544 22.8789
rtibia 18.5906
rfoot -12.6233 -5.97089
rtoes -11.8561
lfemur -6.28313 2.12271 -16.6603
ltibia 18.6904
lfoot -11.6245 -0.460372
ltoes -14.5965
1453
root 0.898364 18.431 -4.33727 3.43184 3.69808 -2.96966
lowerback 9.28365 0.114704 0.681912
upperback -0.835605 0.449358 3.56255
thorax -6.12 0.262379 3.29031
lowerneck -17.3904 -6.49863 -16.1906
upperneck 17.9107 -7.26403 12.0836
head 9.58855 -3.26402 5.91743
rclavicle -3.97569e-015 -1.19271e-014
rhumerus 11.9896 26.9742 -63.1993
rradius 84.26
rwrist 20.1776
rhand -5.32213 7.74639
rfingers 7.12502
rthumb 20.4839 -21.1931
lclavicle -3.97569e-015 -1.19271e-014
lhumerus 41.9317 -18.313 73.9098
lradius 58.6247
lwrist -21.3982
lhand -7.58653 26.2226
lfingers 7.12502
lthumb 18.3066 55.3812
rfemur -5.8944 -0.995359 22.9128
rtibia 18.5538
rfoot -12.6759 -6.15643
rtoes -12.1339
lfemur -6.36136 2.01689 -16.6313
ltibia 18.7312
lfoot -11.5207 -0.616325
ltoes -14.3996
1454
root 0.900076 18.4322 -4.33614 3.44351 3.93585 -2.94787
lowerback 8.90471 0.213683 0.691752
upperback -0.591193 0.566327 3.61837
thorax -5.65404 0.316489 3.32117
lowerneck -17.4231 -6.73296 -16.3299
upperneck 17.6107 -7.51517 12.0409
head 9.53497 -3.38979 5.87691
rclavicle -7.65321e-015 2.38542e-015
rhumerus 12.5446 26.5131 -62.8707
rradius 82.933
rwrist 20.287
rhand -5.69608 8.25478
rfingers 7.12502
rthumb 20.1245 -20.7229
lclavicle -7.65321e-015 2.38542e-015
lhumerus 42.4222 -18.4367 73.9122
lradius 60.1521
lwrist -21.4705
lhand -7.0125 26.2055
lfingers 7.12502
lthumb 18.8588 55.3113
rfemur -5.87188 -1.08045 22.8923
rtibia 18.507
rfoot -12.7036 -6.25631
rtoes -12.2814
lfemur -6.43899 1.90956 -16.6529
ltibia 18.7922
lfoot -11.5175 -0.719169
ltoes -13.9623
1455
root 0.898434 18.4334 -4.3388 3.47787 4.05271 -2.98536
lowerback 8.75625 0.346223 0.773372
upperback -0.508411 0.746034 3.64465
thorax -5.49189 0.401881 3.27659
lowerneck -17.387 -6.97723 -16.6034
upperneck 17.4941 -7.81369 12.1921
head 9.55506 -3.53159 5.92886
rclavicle 1.15295e-014 -2.94201e-014
rhumerus 12.7342 26.2799 -62.6525
rradius 82.0702
rwrist 19.0402
rhand -6.38836 7.07254
rfingers 7.12502
rthumb 19.459 -21.9738
lclavicle 1.15295e-014 -2.94201e-014
lhumerus 42.7324 -18.6168 73.9936
lradius 61.5498
lwrist -21.8879
lhand -6.88963 26.1414
lfingers 7.12502
lthumb 18.977 55.2356
rfemur -5.89598 -0.928895 22.9606
rtibia 18.4716
rfoot -12.6888 -6.44034
rtoes -12.134
lfemur -6.55577 1.87486 -16.609
ltibia 18.8296
lfoot -11.4914 -0.715563
ltoes -13.8463
1456
root 0.898396 18.4341 -4.34321 3.5213 4.09637 -3.05526
lowerback 8.74622 0.494671 0.93277
upperback -0.539687 0.961588 3.64104
thorax -5.52767 0.503939 3.15373
lowerneck -17.2295 -7.16684 -16.8896
upperneck 17.396 -8.06844 12.4031
head 9.55698 -3.65229 6.01379
rclavicle 1.5207e-014 -1.51076e-014
rhumerus 12.8691 26.0012 -62.5257
rradius 81.025
rwrist 18.4391
rhand -6.62878 6.20288
rfingers 7.12502
rthumb 19.2278 -22.8666
lclavicle 1.5207e-014 -1.51076e-014
lhumerus 42.8225 -18.8761 74.0025
lradius 62.9614
lwrist -22.1706
lhand -7.82789 26.084
lfingers 7.12502
lthumb 18.0744 55.2642
rfemur -5.96229 -0.809092 23.0438
rtibia 18.4614
rfoot -12.606 -6.58174
rtoes -12.1786
lfemur -6.63579 1.9215 -16.5456
ltibia 18.8205
lfoot -11.4588 -0.68863
ltoes -14.1371
1457
root 0.89904 18.4351 -4.34503 3.51631 4.20251 -3.10428
lowerback 8.74142 0.655732 1.05894
upperback -0.630108 1.1916 3.61223
thorax -5.62813 0.614052 3.02147
lowerneck -16.8073 -7.28573 -16.9444
upperneck 17.3174 -8.28606 12.3988
head 9.49097 -3.77073 5.99051
rclavicle 3.47873e-015 2.54444e-014
rhumerus 13.08 25.6181 -62.3596
rradius 79.723
rwrist 18.5985
rhand -6.50011 6.14085
rfingers 7.12502
rthumb 19.3515 -22.9163
lclavicle 3.47873e-015 2.54444e-014
lhumerus 42.5309 -19.3055 74.0726
lradius 64.8193
lwrist -22.249
lhand -7.48459 26.4853
lfingers 7.12502
lthumb 18.4047 55.6346
rfemur -5.96656 -0.766332 23.1004
rtibia 18.4519
rfoot -12.5669 -6.71297
rtoes -12.1515
lfemur -6.65868 2.00022 -16.4909
ltibia 18.8144
lfoot -11.4515 -0.816203
ltoes -14.0578
